# Blender 4.2.1 LTS
# www.blender.org
mtllib table.mtl
o Cube.004
v -0.479290 0.568428 0.470307
v -0.479290 0.612545 0.470307
v -0.479290 0.568428 -0.454152
v -0.479290 0.612545 -0.454152
v 0.348888 0.568428 0.470307
v 0.348888 0.612545 0.470307
v 0.348888 0.568428 -0.454152
v 0.348888 0.612545 -0.454152
v -0.460604 -0.056921 0.426249
v -0.460604 0.603456 0.426249
v -0.460604 -0.056921 0.312408
v -0.460604 0.603456 0.312408
v -0.346763 -0.056921 0.426249
v -0.346763 0.603456 0.426249
v -0.346763 -0.056921 0.312408
v -0.346763 0.603456 0.312408
v -0.460604 -0.056921 -0.304203
v -0.460604 0.603456 -0.304203
v -0.460604 -0.056921 -0.418045
v -0.460604 0.603456 -0.418045
v -0.346763 -0.056921 -0.304203
v -0.346763 0.603456 -0.304203
v -0.346763 -0.056921 -0.418045
v -0.346763 0.603456 -0.418045
v 0.224289 -0.056921 0.426249
v 0.224289 0.603456 0.426249
v 0.224289 -0.056921 0.312408
v 0.224289 0.603456 0.312408
v 0.338131 -0.056921 0.426249
v 0.338131 0.603456 0.426249
v 0.338131 -0.056921 0.312408
v 0.338131 0.603456 0.312408
v 0.224289 -0.056921 -0.304203
v 0.224289 0.603456 -0.304203
v 0.224289 -0.056921 -0.418045
v 0.224289 0.603456 -0.418045
v 0.338131 -0.056921 -0.304203
v 0.338131 0.603456 -0.304203
v 0.338131 -0.056921 -0.418045
v 0.338131 0.603456 -0.418045
vn -0.0000 -1.0000 -0.0000
vn -0.0000 -0.0000 -1.0000
vn 1.0000 -0.0000 -0.0000
vn -0.0000 1.0000 -0.0000
vn -1.0000 -0.0000 -0.0000
vn -0.0000 -0.0000 1.0000
vt 0.625000 0.500000
vt 0.875000 0.500000
vt 0.875000 0.750000
vt 0.625000 0.750000
vt 0.375000 0.750000
vt 0.625000 1.000000
vt 0.375000 1.000000
vt 0.375000 0.000000
vt 0.625000 0.000000
vt 0.625000 0.250000
vt 0.375000 0.250000
vt 0.125000 0.500000
vt 0.375000 0.500000
vt 0.125000 0.750000
s 0
usemtl Material
f 1/1/1 3/4/1 7/3/1 5/2/1
f 4/5/2 8/7/2 7/6/2 3/4/2
f 8/8/3 6/11/3 5/10/3 7/9/3
f 6/12/4 8/14/4 4/5/4 2/13/4
f 2/13/5 4/5/5 3/4/5 1/1/5
f 6/11/6 2/13/6 1/1/6 5/10/6
f 9/1/1 11/4/1 15/3/1 13/2/1
f 12/5/2 16/7/2 15/6/2 11/4/2
f 16/8/3 14/11/3 13/10/3 15/9/3
f 14/12/4 16/14/4 12/5/4 10/13/4
f 10/13/5 12/5/5 11/4/5 9/1/5
f 14/11/6 10/13/6 9/1/6 13/10/6
f 17/1/1 19/4/1 23/3/1 21/2/1
f 20/5/2 24/7/2 23/6/2 19/4/2
f 24/8/3 22/11/3 21/10/3 23/9/3
f 22/12/4 24/14/4 20/5/4 18/13/4
f 18/13/5 20/5/5 19/4/5 17/1/5
f 22/11/6 18/13/6 17/1/6 21/10/6
f 25/1/1 27/4/1 31/3/1 29/2/1
f 28/5/2 32/7/2 31/6/2 27/4/2
f 32/8/3 30/11/3 29/10/3 31/9/3
f 30/12/4 32/14/4 28/5/4 26/13/4
f 26/13/5 28/5/5 27/4/5 25/1/5
f 30/11/6 26/13/6 25/1/6 29/10/6
f 33/1/1 35/4/1 39/3/1 37/2/1
f 36/5/2 40/7/2 39/6/2 35/4/2
f 40/8/3 38/11/3 37/10/3 39/9/3
f 38/12/4 40/14/4 36/5/4 34/13/4
f 34/13/5 36/5/5 35/4/5 33/1/5
f 38/11/6 34/13/6 33/1/6 37/10/6
